# xmcd CD database file
#
# Track frame offsets:
#	150
#	18752
#	42970
#
# Disc length: 589 seconds
#
# Revision: 0
# Processed by: cddbd v1.5PL3 Copyright (c) Steve Scherf et al.
# Submitted via: CDex 1.50beta8
#
DISCID=17024b03
DTITLE=矢井田瞳 - 孤独なカウボーイ
DYEAR=2003
DGENRE=Pop
TTITLE0=孤独なカウボーイ
TTITLE1=ママとテディ
TTITLE2=データ
EXTD=YEAR: 2003
EXTT0=
EXTT1=
EXTT2=
PLAYORDER=
